<?xml version="1.0" encoding="utf-8"?>
<!-- Generator: Adobe Illustrator 22.0.1, SVG Export Plug-In . SVG Version: 6.00 Build 0)  -->
<svg version="1.1" id="Warstwa_1" xmlns="http://www.w3.org/2000/svg" xmlns:xlink="http://www.w3.org/1999/xlink" x="0px" y="0px"
	 viewBox="0 0 1000 1000" style="enable-background:new 0 0 1000 1000;" xml:space="preserve">
<style type="text/css">
	.st0{fill:none;}
	.st1{opacity:0.5;}
	.st2{fill:#007BFF;}
	.st3{fill:url(#pattern);}
	.st4{fill:#7FB7FF;}
</style>
<pattern id='pattern' x='0' y='0' width='30' height='30' viewBox='0 0 4 4' patternUnits='userSpaceOnUse'>
    <path class='st2' fill-opacity='0.5' d='M1 3h1v1H1V3zm2-2h1v1H3V1z' />
</pattern>
<path class="st3" d="M0,0v1000h1000V0H0z M749,749.1H248.5V250.8H749V749.1z"/>
<path class="st4" d="M312.1,614.7c0,0-0.2,0.2-0.4,1.1h374l0,0L558,441.9c0,0-15.3-20.5-30.4,0l-78.7,107.5l-29.1-39.3
	c0,0-15.3-20.5-30.4,0L312.1,614.7z"/>
<path class="st4" d="M383.8,418.3c0-17.5-13.8-31.5-31.3-31.5s-31.3,13.8-31.3,31.5s13.8,31.5,31.3,31.5
	C370,449.7,383.8,435.7,383.8,418.3"/>
</svg>