<svg id="vuesax_outline_cloud-change" data-name="vuesax/outline/cloud-change" xmlns="http://www.w3.org/2000/svg" width="48" height="48" viewBox="0 0 48 48">
  <g id="monitor" transform="translate(0)">
    <path id="Vector" d="M27.707,28.4H8.817C2.056,28.4,0,26.348,0,19.587V8.817C0,2.056,2.056,0,8.817,0H27.69c6.761,0,8.817,2.056,8.817,8.817V19.57C36.524,26.348,34.468,28.4,27.707,28.4ZM8.817,2.548c-5.334,0-6.269.934-6.269,6.268V19.57c0,5.334.934,6.268,6.269,6.268H27.69c5.334,0,6.269-.934,6.269-6.268V8.817c0-5.334-.934-6.268-6.269-6.268Z" transform="translate(5.738 4.252)" fill="#064ce4"/>
    <path id="Vector-2" data-name="Vector" d="M3.374,6.748A3.374,3.374,0,1,1,6.749,3.374,3.372,3.372,0,0,1,3.374,6.748Zm0-4.908A1.534,1.534,0,1,0,4.908,3.374,1.534,1.534,0,0,0,3.374,1.84Z" transform="translate(20.626 37)" fill="#064ce4"/>
    <path id="Vector-3" data-name="Vector" d="M5.828,1.84H.92A.927.927,0,0,1,0,.92.927.927,0,0,1,.92,0H5.828a.927.927,0,0,1,.92.92A.927.927,0,0,1,5.828,1.84Z" transform="translate(25.533 39.454)" fill="#064ce4"/>
    <path id="Vector-4" data-name="Vector" d="M5.828,1.84H.92A.927.927,0,0,1,0,.92.927.927,0,0,1,.92,0H5.828a.927.927,0,0,1,.92.92A.927.927,0,0,1,5.828,1.84Z" transform="translate(15.718 39.454)" fill="#064ce4"/>
    <path id="Vector-5" data-name="Vector" d="M1.274,5.767C.578,5.767,0,5.455,0,5.079V.689C0,.312.578,0,1.274,0S2.548.312,2.548.689v4.39C2.548,5.455,1.971,5.767,1.274,5.767Z" transform="translate(22.726 30.107)" fill="#064ce4"/>
    <path id="Vector-6" data-name="Vector" d="M35.25,2.548H1.274A1.283,1.283,0,0,1,0,1.274,1.283,1.283,0,0,1,1.274,0H35.25a1.283,1.283,0,0,1,1.274,1.274A1.283,1.283,0,0,1,35.25,2.548Z" transform="translate(5.738 22.938)" fill="#064ce4"/>
    <path id="Vector-7" data-name="Vector" d="M0,0H48V48H0Z" fill="none" opacity="0"/>
  </g>
</svg>
