<svg xmlns="http://www.w3.org/2000/svg" width="48" height="48" viewBox="0 0 48 48">
  <g id="Cloud" transform="translate(-143.208 -2424.208)">
    <g id="vuesax_outline_cloud-change" data-name="vuesax/outline/cloud-change" transform="translate(143.208 2424.208)">
      <g id="cloud-change" transform="translate(0 0)">
        <path id="Vector" d="M19.12,22.406H5.72a5.872,5.872,0,0,1-5.72-6,5.882,5.882,0,0,1,3.9-5.66,8.638,8.638,0,0,1,2.12-7.88A9.534,9.534,0,0,1,15.5.387a8.69,8.69,0,0,1,5.84,6.5,7.784,7.784,0,0,1,5.3,5.32,7.671,7.671,0,0,1-2.2,8.14A7.875,7.875,0,0,1,19.12,22.406Zm-13.34-9a2.886,2.886,0,0,0-2.78,3,2.86,2.86,0,0,0,2.82,3H19.06a4.88,4.88,0,0,0,4.7-6.34,4.685,4.685,0,0,0-3.88-3.42,1.506,1.506,0,0,1-1.3-1.24c-.44-2.66-1.86-4.48-3.98-5.14a6.53,6.53,0,0,0-6.42,1.68c-1.56,1.62-1.9,3.92-1,6.46a1.5,1.5,0,0,1-.9,1.92A1.277,1.277,0,0,1,5.78,13.406Z" transform="translate(10.5 11.793)" fill="#0752e4"/>
        <path id="Vector-2" data-name="Vector" d="M15.5,17A15.526,15.526,0,0,1,0,1.5,1.511,1.511,0,0,1,1.5,0,1.511,1.511,0,0,1,3,1.5a12.522,12.522,0,0,0,9.66,12.18l-.54-.9a1.5,1.5,0,1,1,2.58-1.54l2.1,3.5a1.49,1.49,0,0,1,.02,1.5A1.563,1.563,0,0,1,15.5,17Z" transform="translate(2.5 28.5)" fill="#0752e4"/>
        <path id="Vector-3" data-name="Vector" d="M15.513,17a1.511,1.511,0,0,1-1.5-1.5A12.522,12.522,0,0,0,4.353,3.32l.54.9a1.5,1.5,0,1,1-2.58,1.54l-2.1-3.5A1.49,1.49,0,0,1,.193.76,1.464,1.464,0,0,1,1.493,0a15.526,15.526,0,0,1,15.5,15.5A1.481,1.481,0,0,1,15.513,17Z" transform="translate(28.487 2.5)" fill="#0752e4"/>
        <path id="Vector-4" data-name="Vector" d="M0,0H48V48H0Z" transform="translate(48 48) rotate(180)" fill="none" opacity="0"/>
      </g>
    </g>
  </g>
</svg>
