<svg xmlns="http://www.w3.org/2000/svg" width="40" height="40" viewBox="0 0 40 40">
  <g id="Illuminate" transform="translate(-108 -252)">
    <g id="lifebuoy" transform="translate(108 252)">
      <path id="Vector" d="M17.917,35.833A17.917,17.917,0,1,1,35.833,17.917,17.942,17.942,0,0,1,17.917,35.833Zm0-33.333A15.417,15.417,0,1,0,33.333,17.917,15.435,15.435,0,0,0,17.917,2.5Z" transform="translate(2.033 2.083)" fill="#292d32"/>
      <path id="Vector-2" data-name="Vector" d="M8.75,17.5A8.75,8.75,0,1,1,17.5,8.75,8.76,8.76,0,0,1,8.75,17.5Zm0-15A6.25,6.25,0,1,0,15,8.75,6.252,6.252,0,0,0,8.75,2.5Z" transform="translate(11.25 11.25)" fill="#292d32"/>
      <path id="Vector-3" data-name="Vector" d="M7.146,8.379a1.262,1.262,0,0,1-.883-.35l-5.9-5.9A1.249,1.249,0,0,1,2.129.362l5.9,5.9a1.257,1.257,0,0,1,0,1.767A1.291,1.291,0,0,1,7.146,8.379Z" transform="translate(6.921 6.971)" fill="#292d32"/>
      <path id="Vector-4" data-name="Vector" d="M1.246,8.4a1.236,1.236,0,0,1-.883-.367,1.257,1.257,0,0,1,0-1.767l5.9-5.9A1.249,1.249,0,0,1,8.029,2.129l-5.9,5.9A1.209,1.209,0,0,1,1.246,8.4Z" transform="translate(6.921 24.638)" fill="#292d32"/>
      <path id="Vector-5" data-name="Vector" d="M7.146,8.4a1.236,1.236,0,0,1-.883-.367l-5.9-5.9A1.249,1.249,0,0,1,2.129.362l5.9,5.9a1.257,1.257,0,0,1,0,1.767A1.183,1.183,0,0,1,7.146,8.4Z" transform="translate(24.588 24.638)" fill="#292d32"/>
      <path id="Vector-6" data-name="Vector" d="M1.246,8.4a1.236,1.236,0,0,1-.883-.367,1.257,1.257,0,0,1,0-1.767l5.9-5.9A1.249,1.249,0,0,1,8.029,2.129l-5.9,5.917A1.291,1.291,0,0,1,1.246,8.4Z" transform="translate(24.604 6.954)" fill="#292d32"/>
      <path id="Vector-7" data-name="Vector" d="M0,0H40V40H0Z" fill="none" opacity="0"/>
    </g>
  </g>
</svg>
