<svg xmlns="http://www.w3.org/2000/svg" width="40" height="40" viewBox="0 0 40 40">
  <g id="Implement" transform="translate(-428 -316)">
    <g id="flash" transform="translate(428 316)">
      <path id="Vector" d="M10.033,35.841a2.071,2.071,0,0,1-.8-.15c-.667-.25-1.8-1.067-1.8-3.65V21.291h-3.9C1.3,21.291.5,20.241.216,19.624c-.283-.633-.533-1.917.933-3.6L13.766,1.691c1.7-1.933,3.083-1.8,3.75-1.55s1.8,1.067,1.8,3.65v10.75h3.9c2.233,0,3.033,1.05,3.317,1.667.283.633.533,1.917-.933,3.6L12.983,34.141A4.061,4.061,0,0,1,10.033,35.841ZM16.6,2.491a5.477,5.477,0,0,0-.95.867L3.033,17.691a1.829,1.829,0,0,0-.533.933,2.2,2.2,0,0,0,1.033.183h5.15a1.259,1.259,0,0,1,1.25,1.25v12a2.645,2.645,0,0,0,.217,1.3,5.477,5.477,0,0,0,.95-.867L23.716,18.158a1.829,1.829,0,0,0,.533-.933,2.2,2.2,0,0,0-1.033-.183h-5.15a1.259,1.259,0,0,1-1.25-1.25v-12A2.5,2.5,0,0,0,16.6,2.491Z" transform="translate(6.617 2.076)" fill="#292d32"/>
      <path id="Vector-2" data-name="Vector" d="M0,0H40V40H0Z" fill="none" opacity="0"/>
    </g>
  </g>
</svg>
