<svg xmlns="http://www.w3.org/2000/svg" width="40" height="40" viewBox="0 0 40 40">
  <g id="Innovate" transform="translate(-620 -380)">
    <g id="layer" transform="translate(620 380)">
      <path id="Vector" d="M15.233,16.571a6.476,6.476,0,0,1-2.533-.483L2.867,11.721C.367,10.6,0,9.1,0,8.287S.367,5.971,2.867,4.854L12.7.487a6.869,6.869,0,0,1,5.083,0l9.85,4.367c2.483,1.1,2.867,2.617,2.867,3.433s-.367,2.317-2.867,3.433l-9.85,4.367A6.27,6.27,0,0,1,15.233,16.571Zm0-14.067a3.8,3.8,0,0,0-1.517.267L3.883,7.137C2.867,7.6,2.5,8.071,2.5,8.287s.367.7,1.367,1.15L13.7,13.8a4.561,4.561,0,0,0,3.05,0L26.6,9.438c1.017-.45,1.383-.933,1.383-1.15s-.367-.7-1.383-1.15L16.767,2.771A4.207,4.207,0,0,0,15.233,2.5Z" transform="translate(4.417 3.229)" fill="#292d32"/>
      <path id="Vector-2" data-name="Vector" d="M16.25,11.4a4.587,4.587,0,0,1-1.867-.4L3.067,5.967A5.515,5.515,0,0,1,0,1.25,1.259,1.259,0,0,1,1.25,0,1.259,1.259,0,0,1,2.5,1.25,3.052,3.052,0,0,0,4.083,3.7L15.4,8.733a2.152,2.152,0,0,0,1.7,0L28.417,3.7A3.028,3.028,0,0,0,30,1.25a1.25,1.25,0,0,1,2.5,0,5.561,5.561,0,0,1-3.067,4.733L18.117,11.017A4.858,4.858,0,0,1,16.25,11.4Z" transform="translate(3.75 17.083)" fill="#292d32"/>
      <path id="Vector-3" data-name="Vector" d="M16.25,11.417a4.587,4.587,0,0,1-1.867-.4L3.067,5.983A5.176,5.176,0,0,1,0,1.25,1.259,1.259,0,0,1,1.25,0,1.274,1.274,0,0,1,2.5,1.267a2.689,2.689,0,0,0,1.583,2.45L15.4,8.75a2.152,2.152,0,0,0,1.7,0L28.417,3.717A2.671,2.671,0,0,0,30,1.267a1.25,1.25,0,0,1,2.5,0A5.176,5.176,0,0,1,29.433,6L18.117,11.033A4.858,4.858,0,0,1,16.25,11.417Z" transform="translate(3.75 25.4)" fill="#292d32"/>
      <path id="Vector-4" data-name="Vector" d="M0,0H40V40H0Z" fill="none" opacity="0"/>
    </g>
  </g>
</svg>
