<svg xmlns="http://www.w3.org/2000/svg" width="20" height="20" viewBox="0 0 20 20">
  <g id="Instagram" transform="translate(-241 -3947)">
    <rect id="Rectangle_17102" data-name="Rectangle 17102" width="20" height="20" transform="translate(241 3947)" fill="none"/>
    <path id="Icon_zocial-instagram" data-name="Icon zocial-instagram" d="M12.766,13.967a1.665,1.665,0,0,0,.766-.435,1.541,1.541,0,0,0,.424-.731c.049-.194.052-.378.052-5.784,0-6.074.011-5.74-.148-6.083a1.634,1.634,0,0,0-.8-.791C12.711-.013,13.056,0,6.935,0L1.3.009l-.175.06A1.66,1.66,0,0,0,.07,1.121L.009,1.3,0,6.935C0,13.2-.018,12.73.182,13.135a1.626,1.626,0,0,0,.693.693c.4.2-.055.183,6.143.181C11.756,14.006,12.626,14,12.766,13.967ZM1.854,12.3c-.224-.159-.23-.175-.238-1.218-.008-1.016,0-1.068.164-1.229C1.931,9.705,2,9.7,2.993,9.7l.9,0,.123.066a.673.673,0,0,1,.2.192l.082.12,0,.906c0,.5-.008.947-.022,1a.511.511,0,0,1-.279.345l-.137.068-.95-.008-.947-.008Zm4.6-2.658a2.717,2.717,0,0,1-2.1-2.108,3.344,3.344,0,0,1-.03-.89,2.757,2.757,0,0,1,1.4-2.015,2.938,2.938,0,0,1,.723-.268c.052-.005.162-.022.244-.036A2.7,2.7,0,0,1,9.144,5.372,2.678,2.678,0,0,1,9.092,8.7a2.729,2.729,0,0,1-1.807.983A2.857,2.857,0,0,1,6.459,9.642Zm4.766-1.777a4.344,4.344,0,0,0-.361-2.779,4.027,4.027,0,0,0-.819-1.125A4.27,4.27,0,0,0,6.319,2.747,4.337,4.337,0,0,0,2.832,5.922a4.251,4.251,0,0,0-.112,1.533,3.014,3.014,0,0,0,.112.591c.008.014.005.025-.008.027-.1.011-1.169.008-1.188-.005s-.022-1.224-.019-3.055l.008-3.041.082-.118a.684.684,0,0,1,.205-.181l.123-.063,5,.008,5,.005.112.074a.72.72,0,0,1,.175.178l.066.1.008,3.025c0,1.664,0,3.036-.005,3.052a2.946,2.946,0,0,1-.61.027h-.6Z" transform="translate(258.01 3964.01) rotate(180)"/>
  </g>
</svg>
