<svg id="vuesax_outline_shield-tick" data-name="vuesax/outline/shield-tick" xmlns="http://www.w3.org/2000/svg" width="48" height="48" viewBox="0 0 48 48">
  <g id="shield-tick" transform="translate(0 0)">
    <path id="Vector" d="M18.7,43.015a10.18,10.18,0,0,1-6.04-1.9l-8.6-6.42A11.207,11.207,0,0,1,0,26.615V11.735A8.418,8.418,0,0,1,5.16,4.3L15.14.555a11.567,11.567,0,0,1,7.08,0L32.2,4.3a8.418,8.418,0,0,1,5.16,7.44V26.6a11.171,11.171,0,0,1-4.06,8.08l-8.6,6.42A9.86,9.86,0,0,1,18.7,43.015ZM16.2,3.375,6.22,7.115a5.48,5.48,0,0,0-3.2,4.64v14.86A8.269,8.269,0,0,0,5.86,32.3l8.6,6.42a7.646,7.646,0,0,0,8.5,0l8.6-6.42a8.229,8.229,0,0,0,2.84-5.68V11.735A5.531,5.531,0,0,0,31.2,7.1l-9.98-3.74A8.755,8.755,0,0,0,16.2,3.375Z" transform="translate(5.3 2.505)" fill="#064ce4"/>
    <path id="Vector-2" data-name="Vector" d="M4.715,11.6a1.483,1.483,0,0,1-1.06-.44L.435,7.935a1.5,1.5,0,0,1,2.12-2.12l2.16,2.16,7.54-7.54a1.5,1.5,0,0,1,2.12,2.12l-8.6,8.6A1.483,1.483,0,0,1,4.715,11.6Z" transform="translate(16.605 16.865)" fill="#064ce4"/>
    <path id="Vector-3" data-name="Vector" d="M0,0H48V48H0Z" fill="none" opacity="0"/>
  </g>
</svg>
