<svg xmlns="http://www.w3.org/2000/svg" xmlns:xlink="http://www.w3.org/1999/xlink" width="93" height="24" viewBox="0 0 93 24">
  <defs>
    <clipPath id="clip-path">
      <rect id="Rectangle_17255" data-name="Rectangle 17255" width="93" height="24" transform="translate(1833 -8689)" fill="#fff"/>
    </clipPath>
    <clipPath id="clip-path-2">
      <rect id="Rectangle_17103" data-name="Rectangle 17103" width="93" height="20" transform="translate(108 42)" fill="#fff" stroke="#707070" stroke-width="1"/>
    </clipPath>
    <linearGradient id="linear-gradient" x1="0.731" y1="1.145" x2="0.208" y2="0.066" gradientUnits="objectBoundingBox">
      <stop offset="0.09" stop-color="#0db0e9"/>
      <stop offset="1" stop-color="#0324e1"/>
    </linearGradient>
    <linearGradient id="linear-gradient-2" x1="0.694" y1="0.034" x2="0.003" y2="1.185" xlink:href="#linear-gradient"/>
    <linearGradient id="linear-gradient-3" x1="0.77" y1="0.151" x2="-0.36" y2="0.912" gradientUnits="objectBoundingBox">
      <stop offset="0.09" stop-color="#0db0e9"/>
      <stop offset="0.69" stop-color="#0324e1"/>
      <stop offset="1" stop-color="#097de6"/>
    </linearGradient>
  </defs>
  <g id="Logo" transform="translate(-1833 8689)" clip-path="url(#clip-path)">
    <g id="Mask_Group_57" data-name="Mask Group 57" transform="translate(1725 -8729)" clip-path="url(#clip-path-2)">
      <g id="Group_16964" data-name="Group 16964" transform="translate(0 -2)">
        <g id="Xvintec-01" transform="translate(108 45.866)">
          <path id="Path_25297" data-name="Path 25297" d="M800,738.223h0a1.915,1.915,0,0,0-.575-.477,2.678,2.678,0,0,0-3.235.443l-1.4,1.4,4.31,4.31h3.042l.012.011h3.531L800,738.223h0Z" transform="translate(-783.884 -726.905)" fill="url(#linear-gradient)"/>
          <path id="Path_25298" data-name="Path 25298" d="M798.105,293.074a3.073,3.073,0,0,0,1.73-.717l.118-.118a.819.819,0,0,0,.055-.067v.012l5.7-5.7-6.179-.005-4.728,4.728,1.092,1.092a2.673,2.673,0,0,0,2.213.774Z" transform="translate(-783.893 -286.48)" fill="url(#linear-gradient-2)"/>
          <path id="Path_25299" data-name="Path 25299" d="M341.88,292.248a1.628,1.628,0,0,1-.118.118,3.073,3.073,0,0,1-1.73.717,2.674,2.674,0,0,1-2.213-.774l-1.092-1.092L332,286.49l-6.179.005,5.7,5.7v-.012a.777.777,0,0,0,.055.067l.118.118,2.829,2.829-1.906,1.906-6.382,6.382h6.184l4.31-4.31,1.4-1.4a2.678,2.678,0,0,1,3.235-.443,1.919,1.919,0,0,1,.575.477h0v-5.615Z" transform="translate(-325.82 -286.49)" fill="url(#linear-gradient-3)"/>
        </g>
        <text id="vintec" transform="translate(132 62)" fill="#303030" font-size="26" font-family="Anek Gujarati" font-weight="600"><tspan x="0" y="0">vintec</tspan></text>
      </g>
    </g>
  </g>
</svg>
